<?xml version="1.0" encoding="UTF-8" standalone="no"?>
<!-- Created with Inkscape (http://www.inkscape.org/) -->

<svg
   xmlns:dc="http://purl.org/dc/elements/1.1/"
   xmlns:cc="http://creativecommons.org/ns#"
   xmlns:rdf="http://www.w3.org/1999/02/22-rdf-syntax-ns#"
   xmlns:svg="http://www.w3.org/2000/svg"
   xmlns="http://www.w3.org/2000/svg"
   xmlns:sodipodi="http://sodipodi.sourceforge.net/DTD/sodipodi-0.dtd"
   xmlns:inkscape="http://www.inkscape.org/namespaces/inkscape"
   width="500"
   height="500"
   viewBox="0 0 500.00003 500"
   version="1.1"
   id="svg8"
   inkscape:version="0.92.1 r15371"
   sodipodi:docname="favicon.svg"
   inkscape:export-filename="D:\workspace\BioSPPy-GitHub\docs\logo\favicon.png"
   inkscape:export-xdpi="250"
   inkscape:export-ydpi="250">
  <defs
     id="defs2">
    <clipPath
       id="clipEmfPath1"
       clipPathUnits="userSpaceOnUse">
      <path
         id="path4506"
         d="  M 730.71459,95.679291   L 819.27393,95.679291   L 819.27393,147.75891   L 730.71459,147.75891   z" />
    </clipPath>
    <clipPath
       id="clipEmfPath2"
       clipPathUnits="userSpaceOnUse">
      <path
         id="path4509"
         d="  M 716.63469,95.679291   L 628.07535,95.679291   L 628.07535,147.75891   L 716.63469,147.75891   z" />
    </clipPath>
    <pattern
       y="0"
       x="0"
       height="6"
       width="6"
       patternUnits="userSpaceOnUse"
       id="EMFhbasepattern" />
  </defs>
  <sodipodi:namedview
     id="base"
     pagecolor="#ffffff"
     bordercolor="#666666"
     borderopacity="1.0"
     inkscape:pageopacity="0"
     inkscape:pageshadow="2"
     inkscape:zoom="0.73855479"
     inkscape:cx="0.20417235"
     inkscape:cy="236.47769"
     inkscape:document-units="px"
     inkscape:current-layer="layer1"
     showgrid="false"
     inkscape:window-width="1920"
     inkscape:window-height="1001"
     inkscape:window-x="1911"
     inkscape:window-y="-9"
     inkscape:window-maximized="1"
     units="px"
     fit-margin-top="20"
     fit-margin-left="20"
     fit-margin-right="20"
     fit-margin-bottom="20" />
  <metadata
     id="metadata5">
    <rdf:RDF>
      <cc:Work
         rdf:about="">
        <dc:format>image/svg+xml</dc:format>
        <dc:type
           rdf:resource="http://purl.org/dc/dcmitype/StillImage" />
        <dc:title></dc:title>
      </cc:Work>
    </rdf:RDF>
  </metadata>
  <g
     inkscape:label="Layer 1"
     inkscape:groupmode="layer"
     id="layer1"
     transform="translate(-51.406827,-163.35308)">
    <rect
       style="fill:#ffffff;fill-opacity:1;fill-rule:nonzero;stroke:none;stroke-width:2.86545801;stroke-miterlimit:4;stroke-dasharray:none;stroke-opacity:1"
       id="rect4582"
       width="500"
       height="500"
       x="51.406826"
       y="163.35309" />
    <g
       id="g4720"
       transform="matrix(1.4082791,0,0,1.4082791,-162.60398,-156.9327)">
      <path
         inkscape:connector-curvature="0"
         style="fill:#808080;fill-opacity:1;fill-rule:nonzero;stroke:none"
         d="m 314.84793,390.82671 c 0,8.39994 -6.87995,15.27989 -15.27989,15.27989 -8.39994,0 -15.19989,-6.87995 -15.19989,-15.27989 0,-8.39993 6.79995,-15.19988 15.19989,-15.19988 8.39994,0 15.27989,6.79995 15.27989,15.19988 z"
         id="path4579" />
      <path
         inkscape:connector-curvature="0"
         style="fill:#808080;fill-opacity:1;fill-rule:nonzero;stroke:none"
         d="m 259.08834,388.42673 -35.51974,15.83988 26.23981,0.48 c -0.64,2.79998 -1.11999,5.67996 -1.11999,8.63994 0,19.59985 15.91988,35.27974 35.35974,35.27974 3.51997,0 6.95994,-0.48 10.15992,-1.43999 l 2.47998,19.75985 9.51993,-26.23981 c 8.15994,-6.47995 13.1199,-16.31987 13.1199,-27.51979 0,-19.59986 -15.83988,-35.35974 -35.27973,-35.35974 -9.75993,0 -18.63987,4.07997 -25.11982,10.39992 z"
         id="path4581" />
      <path
         inkscape:connector-curvature="0"
         style="fill:#000000;fill-opacity:1;fill-rule:nonzero;stroke:none"
         d="m 245.24844,399.62665 c -29.43978,0 -53.2796,23.75982 -53.2796,53.2796 0,29.51979 23.83982,53.35961 53.2796,53.35961 29.51978,0 53.35961,-23.83982 53.35961,-53.35961 0,-29.51978 -23.83983,-53.2796 -53.35961,-53.2796 z"
         id="path4583" />
      <path
         inkscape:connector-curvature="0"
         style="fill:#f7f7f8;fill-opacity:1;fill-rule:nonzero;stroke:none"
         d="m 245.24844,420.1865 c -18.07986,0 -32.71975,14.71989 -32.71975,32.71975 0,18.15987 14.71989,32.71976 32.71975,32.71976 18.15987,0 32.79976,-14.71989 32.79976,-32.71976 0,-18.15986 -14.63989,-32.71975 -32.79976,-32.71975 z"
         id="path4585" />
      <path
         inkscape:connector-curvature="0"
         style="fill:none;stroke:#000000;stroke-width:2.47998166px;stroke-linecap:round;stroke-linejoin:round;stroke-miterlimit:4;stroke-dasharray:none;stroke-opacity:1"
         d="m 221.96862,459.6262 h 6.71995 c 0,0 2.55998,-3.03997 4.71996,-2.63998 1.51999,0.24 3.11998,2.63998 3.11998,2.63998 h 3.59997 l 2.39998,3.43998 2.07999,-25.75981 1.59999,31.19977 2.63998,-8.71994 4.87996,0.08 c 0,0 2.55998,-5.19996 5.27996,-4.95996 2.39998,0.24 2.79998,4.71996 2.79998,4.71996 h 6.79995"
         id="path4589" />
      <path
         inkscape:connector-curvature="0"
         style="fill:#808080;fill-opacity:1;fill-rule:nonzero;stroke:none"
         d="m 344.12771,390.82671 c 0,8.39994 6.79995,15.27989 15.27989,15.27989 8.39994,0 15.19989,-6.87995 15.19989,-15.27989 0,-8.39993 -6.79995,-15.19988 -15.19989,-15.19988 -8.47994,0 -15.27989,6.79995 -15.27989,15.19988 z"
         id="path4591" />
      <path
         inkscape:connector-curvature="0"
         style="fill:#808080;fill-opacity:1;fill-rule:nonzero;stroke:none"
         d="m 399.8873,388.42673 35.51973,15.83988 -26.2398,0.48 c 0.63999,2.79998 1.11999,5.67996 1.11999,8.63994 0,19.59985 -15.91988,35.27974 -35.35974,35.27974 -3.51997,0 -6.95995,-0.48 -10.23992,-1.43999 l -2.39998,19.75985 -9.51993,-26.23981 c -8.15994,-6.47995 -13.19991,-16.31987 -13.19991,-27.51979 0,-19.59986 15.91989,-35.35974 35.35974,-35.35974 9.75993,0 18.63986,4.07997 25.11982,10.39992 z"
         id="path4593" />
      <path
         inkscape:connector-curvature="0"
         style="fill:#000000;fill-opacity:1;fill-rule:nonzero;stroke:none"
         d="m 413.6472,399.62665 c 29.51978,0 53.3596,23.75982 53.3596,53.2796 0,29.51979 -23.83982,53.35961 -53.3596,53.35961 -29.43979,0 -53.27961,-23.83982 -53.27961,-53.35961 0,-29.51978 23.83982,-53.2796 53.27961,-53.2796 z"
         id="path4595" />
      <path
         inkscape:connector-curvature="0"
         style="fill:#f7f7f8;fill-opacity:1;fill-rule:nonzero;stroke:none"
         d="m 413.6472,420.1865 c 18.15986,0 32.79975,14.71989 32.79975,32.71975 0,18.15987 -14.71989,32.71976 -32.79975,32.71976 -18.07987,0 -32.71976,-14.71989 -32.71976,-32.71976 0,-18.15986 14.63989,-32.71975 32.71976,-32.71975 z"
         id="path4597" />
      <path
         transform="translate(-394.18685,303.62736)"
         inkscape:connector-curvature="0"
         style="fill:#333333;fill-opacity:1;fill-rule:nonzero;stroke:none"
         clip-path="url(#clipEmfPath1)"
         d="m 682.55494,146.79891 c 3.75998,0.32 8.07994,-4.55996 9.35993,-13.1199 1.35999,-8.47994 5.67996,-7.59994 10.23993,-8.31994 -2.87998,-2.23998 -7.27995,-13.4399 -7.27995,-16.31988 0,-2.95998 0.48,-3.91997 1.43999,-5.51996 l -1.43999,-2.95997 h -14.39989 l -7.03995,-4.159974 -19.11986,0.799994 c 22.71983,9.19993 34.23975,30.63977 28.0798,49.43963 z m 67.9195,0 c -3.75997,0.32 -8.07994,-4.55996 -9.43993,-13.1199 -1.27999,-8.47994 -5.59996,-7.59994 -10.15992,-8.31994 2.87997,-2.23998 7.27994,-13.4399 7.27994,-16.31988 0,-2.95998 -0.47999,-3.91997 -1.43999,-5.51996 l 1.43999,-2.95997 h 14.3999 l 6.95994,-4.159974 19.19986,0.799994 c -22.71983,9.19993 -34.23974,30.63977 -28.07979,49.43963 z M 725.99462,83.439382 v 0 l 2.55998,9.679928 v 0 h -23.75982 v 0 l 2.55998,-9.679928 v 0 h 18.79986 z"
         id="path4601" />
      <path
         transform="translate(-394.18685,303.62736)"
         inkscape:connector-curvature="0"
         style="fill:#333333;fill-opacity:1;fill-rule:nonzero;stroke:none"
         clip-path="url(#clipEmfPath2)"
         d="m 764.79433,146.79891 c -3.75997,0.32 -8.07994,-4.55996 -9.43993,-13.1199 -1.27999,-8.47994 -5.67995,-7.59994 -10.15992,-8.31994 2.87998,-2.23998 7.27995,-13.4399 7.27995,-16.31988 0,-2.95998 -0.48,-3.91997 -1.43999,-5.51996 l 1.43999,-2.95997 h 14.39989 l 6.95995,-4.159974 19.11986,0.799994 c -22.63984,9.19993 -34.15975,30.63977 -27.9998,49.43963 z m -67.91949,0 c 3.67997,0.32 8.07994,-4.55996 9.35993,-13.1199 1.35999,-8.47994 5.67996,-7.59994 10.23992,-8.31994 -2.87998,-2.23998 -7.27994,-13.4399 -7.27994,-16.31988 0,-2.95998 0.47999,-3.91997 1.43999,-5.51996 l -1.43999,-2.95997 h -14.3999 l -7.03994,-4.159974 -19.11986,0.799994 c 22.71983,9.19993 34.23974,30.63977 28.07979,49.43963 z m 24.47982,-63.359528 v 0 l -2.63998,9.679928 v 0 h 23.83982 v 0 l -2.55998,-9.679928 v 0 h -18.79986 z"
         id="path4603" />
      <path
         inkscape:connector-curvature="0"
         style="fill:#333333;fill-opacity:1;fill-rule:nonzero;stroke:none"
         d="m 329.48782,397.86666 c 10.55992,0 19.27986,8.55994 19.27986,19.27986 0,10.63992 -8.55994,19.35986 -19.27986,19.35986 -10.63992,0 -19.35986,-8.55994 -19.35986,-19.35986 0.08,-10.55992 8.63994,-19.27986 19.35986,-19.27986 z m 0,7.19995 c 6.71995,0 11.99991,5.43996 11.99991,11.99991 0,6.71995 -5.43996,11.99991 -11.99991,11.99991 -6.71995,0 -11.99991,-5.43996 -11.99991,-11.99991 0,-6.71995 5.43996,-11.99991 11.99991,-11.99991 z"
         id="path4605" />
      <path
         inkscape:connector-curvature="0"
         style="fill:#333333;fill-opacity:1;fill-rule:nonzero;stroke:none"
         d="m 317.56791,404.18662 h 23.83982 l -2.63998,-9.67993 h -18.63986 z"
         id="path4607" />
      <path
         inkscape:connector-curvature="0"
         style="fill:#f9f9f9;fill-opacity:1;fill-rule:nonzero;stroke:none"
         d="m 329.48782,405.46661 c 6.55995,0 11.75991,5.27996 11.75991,11.67991 0,6.55995 -5.35996,11.75991 -11.75991,11.75991 -6.55995,0 -11.75991,-5.27996 -11.75991,-11.75991 0,-6.55995 5.27996,-11.67991 11.75991,-11.67991 z"
         id="path4609" />
      <path
         inkscape:connector-curvature="0"
         style="fill:#000000;fill-opacity:1;fill-rule:nonzero;stroke:none"
         d="m 412.4472,445.06631 c 0,0.8 -0.15999,1.51999 -0.39999,2.15999 -0.32,0.71999 -0.72,1.35999 -1.19999,1.83998 -0.56,0.56 -1.19999,0.96 -1.91999,1.19999 -0.71999,0.32 -1.59999,0.48 -2.47998,0.48 -0.95999,0 -1.75999,-0.16 -2.47998,-0.48 -0.8,-0.31999 -1.35999,-0.79999 -1.83999,-1.35999 -0.48,-0.63999 -0.87999,-1.43999 -1.11999,-2.39998 -0.24,-0.95999 -0.4,-2.07998 -0.4,-3.35997 0,-0.88 0.08,-1.75999 0.16,-2.55998 0.16,-0.88 0.32,-1.59999 0.56,-2.31999 0.24,-0.79999 0.63999,-1.43999 1.03999,-1.99998 0.48,-0.64 1.03999,-1.11999 1.67999,-1.59999 0.63999,-0.4 1.43999,-0.79999 2.31998,-1.03999 0.87999,-0.24 1.91999,-0.32 3.03998,-0.32 h 1.67999 v 1.99998 h -1.83999 c -0.95999,0 -1.91999,0.08 -2.63998,0.32 -0.72,0.32 -1.35999,0.64 -1.91999,1.03999 -0.47999,0.48 -0.87999,1.04 -1.11999,1.67999 -0.32,0.64 -0.48,1.27999 -0.56,2.07999 v 0.55999 c 0.48,-0.32 1.12,-0.55999 1.83999,-0.79999 0.8,-0.16 1.51999,-0.32 2.39998,-0.32 0.88,0 1.59999,0.16 2.23999,0.4 0.71999,0.24 1.19999,0.63999 1.67998,1.11999 0.4,0.4 0.72,0.95999 0.96,1.59999 0.24,0.63999 0.31999,1.27999 0.31999,2.07998 z m -2.39998,0.16 c 0,-0.55999 -0.08,-1.03999 -0.16,-1.43999 -0.15999,-0.47999 -0.31999,-0.79999 -0.63999,-1.11999 -0.24,-0.24 -0.56,-0.48 -1.03999,-0.64 -0.4,-0.15999 -0.88,-0.23999 -1.43999,-0.23999 -0.32,0 -0.72,0 -1.04,0.08 -0.31999,0.08 -0.63999,0.15999 -1.03999,0.23999 -0.32,0.08 -0.55999,0.24 -0.87999,0.4 -0.32,0.08 -0.56,0.24 -0.8,0.4 0,1.11999 0.08,2.07998 0.24,2.87998 0.16,0.71999 0.32,1.35999 0.64,1.75998 0.32,0.48 0.71999,0.8 1.19999,1.04 0.4,0.16 0.95999,0.23999 1.51999,0.23999 0.55999,0 0.95999,-0.08 1.43999,-0.23999 0.39999,-0.16 0.71999,-0.4 1.03999,-0.72 0.32,-0.32 0.56,-0.63999 0.71999,-1.11999 0.16,-0.48 0.24,-0.95999 0.24,-1.51999 z"
         id="path4611" />
      <path
         inkscape:connector-curvature="0"
         style="fill:#000000;fill-opacity:1;fill-rule:nonzero;stroke:none"
         d="m 426.7671,445.22631 c 0,0.8 -0.16,1.51999 -0.48,2.15999 -0.32,0.63999 -0.71999,1.27999 -1.35999,1.75998 -0.63999,0.48 -1.35999,0.88 -2.31998,1.11999 -0.95999,0.32 -1.99999,0.48 -3.27998,0.48 -0.63999,0 -1.27999,-0.08 -1.83998,-0.08 -0.56,-0.08 -1.03999,-0.08 -1.51999,-0.16 v -2.07998 c 0.55999,0.08 1.11999,0.16 1.75999,0.24 0.55999,0.08 1.19999,0.08 1.83998,0.08 0.88,0 1.59999,-0.08 2.15999,-0.24 0.63999,-0.16 1.11999,-0.4 1.51998,-0.64 0.4,-0.32 0.64,-0.63999 0.88,-1.03999 0.16,-0.48 0.24,-0.87999 0.24,-1.43999 0,-0.48 -0.08,-0.87999 -0.32,-1.19999 -0.24,-0.4 -0.48,-0.64 -0.87999,-0.87999 -0.4,-0.24 -0.88,-0.4 -1.35999,-0.56 -0.56,-0.08 -1.12,-0.16 -1.75999,-0.16 h -1.91999 v -1.91999 h 1.91999 c 0.55999,0 1.03999,-0.08 1.43999,-0.15999 0.4,-0.16 0.79999,-0.32 1.11999,-0.64 0.24,-0.24 0.48,-0.56 0.63999,-0.87999 0.16,-0.4 0.24,-0.8 0.24,-1.27999 0,-0.96 -0.24,-1.59999 -0.79999,-1.99999 -0.56,-0.47999 -1.35999,-0.63999 -2.47998,-0.63999 -0.56,0 -1.19999,0 -1.75999,0.16 -0.63999,0.08 -1.27999,0.23999 -1.99998,0.47999 v -1.99998 c 0.31999,-0.08 0.63999,-0.16 0.95999,-0.24 0.32,-0.08 0.63999,-0.16 0.95999,-0.24 0.4,-0.08 0.72,-0.08 1.03999,-0.08 0.32,-0.08 0.64,-0.08 0.96,-0.08 0.95999,0 1.75998,0.08 2.39998,0.32 0.71999,0.16 1.27999,0.48 1.75999,0.79999 0.47999,0.4 0.79999,0.8 1.03999,1.35999 0.24,0.56 0.39999,1.11999 0.39999,1.75999 0,0.95999 -0.31999,1.83999 -0.79999,2.47998 -0.48,0.64 -1.19999,1.19999 -2.07998,1.59999 0.47999,0.08 0.87999,0.24 1.35999,0.4 0.39999,0.23999 0.79999,0.47999 1.11999,0.79999 0.39999,0.4 0.63999,0.72 0.87999,1.19999 0.16,0.48 0.32,0.95999 0.32,1.43999 z"
         id="path4613" />
      <path
         inkscape:connector-curvature="0"
         style="fill:#000000;fill-opacity:1;fill-rule:nonzero;stroke:none"
         d="m 407.88724,464.98616 c 0,0.72 -0.08,1.35999 -0.24,1.91999 -0.24,0.56 -0.48,0.95999 -0.79999,1.35999 -0.4,0.4 -0.8,0.72 -1.35999,0.87999 -0.48,0.24 -1.04,0.32 -1.67999,0.32 -0.48,0 -0.95999,-0.08 -1.51999,-0.16 -0.48,-0.08 -1.03999,-0.24 -1.51999,-0.47999 v -11.27992 h 1.43999 v 3.27998 l -0.08,1.51998 c 0.4,-0.55999 0.87999,-0.95999 1.35999,-1.19999 0.48,-0.24 0.95999,-0.31999 1.51999,-0.31999 0.48,0 0.87999,0.08 1.27999,0.31999 0.32,0.16 0.64,0.48 0.87999,0.8 0.24,0.39999 0.48,0.79999 0.56,1.35999 0.16,0.47999 0.16,1.03999 0.16,1.67998 z m -1.43999,0.08 c 0,-0.39999 -0.08,-0.79999 -0.08,-1.19999 -0.08,-0.39999 -0.16,-0.63999 -0.32,-0.95999 -0.16,-0.24 -0.32,-0.48 -0.55999,-0.56 -0.24,-0.15999 -0.48,-0.23999 -0.8,-0.23999 -0.16,0 -0.32,0 -0.55999,0.08 -0.16,0.08 -0.32,0.15999 -0.56,0.31999 -0.16,0.08 -0.4,0.32 -0.63999,0.48 -0.24,0.24 -0.48,0.56 -0.72,0.87999 v 4.07997 c 0.32,0.08 0.56,0.16 0.87999,0.24 0.32,0.08 0.56,0.08 0.8,0.08 0.4,0 0.71999,0 0.95999,-0.16 0.32,-0.08 0.64,-0.24 0.8,-0.47999 0.23999,-0.32 0.47999,-0.64 0.55999,-1.04 0.16,-0.39999 0.24,-0.87999 0.24,-1.51999 z"
         id="path4615" />
      <path
         inkscape:connector-curvature="0"
         style="fill:#000000;fill-opacity:1;fill-rule:nonzero;stroke:none"
         d="m 417.32717,464.98616 c 0,0.8 -0.08,1.43999 -0.32,1.99999 -0.16,0.56 -0.48,1.03999 -0.87999,1.35999 -0.32,0.4 -0.8,0.64 -1.27999,0.79999 -0.48,0.24 -1.04,0.32 -1.59999,0.32 -0.32,0 -0.56,0 -0.8,-0.08 -0.23999,0 -0.55999,-0.08 -0.79999,-0.08 v 3.43998 h -1.43999 v -11.75992 h 1.27999 l 0.08,1.35999 c 0.4,-0.55999 0.87999,-0.95999 1.35999,-1.19999 0.48,-0.24 0.95999,-0.31999 1.51999,-0.31999 0.48,0 0.87999,0.08 1.27999,0.31999 0.32,0.16 0.64,0.48 0.87999,0.8 0.24,0.39999 0.4,0.79999 0.56,1.35999 0.08,0.47999 0.16,1.03999 0.16,1.67998 z m -1.43999,0.08 c 0,-0.39999 -0.08,-0.79999 -0.16,-1.19999 0,-0.39999 -0.16,-0.63999 -0.24,-0.95999 -0.16,-0.24 -0.32,-0.48 -0.55999,-0.56 -0.24,-0.15999 -0.48,-0.23999 -0.8,-0.23999 -0.16,0 -0.32,0 -0.55999,0.08 -0.16,0.08 -0.4,0.15999 -0.56,0.31999 -0.24,0.08 -0.4,0.32 -0.63999,0.48 -0.24,0.24 -0.48,0.56 -0.72,0.87999 v 4.07997 c 0.24,0.08 0.56,0.16 0.79999,0.24 0.32,0.08 0.64,0.08 0.88,0.08 0.79999,0 1.43999,-0.24 1.83998,-0.79999 0.48,-0.48 0.72,-1.27999 0.72,-2.39999 z"
         id="path4617" />
      <path
         inkscape:connector-curvature="0"
         style="fill:#000000;fill-opacity:1;fill-rule:nonzero;stroke:none"
         d="m 425.56711,469.38613 v -6.07995 c 0,-0.24 0,-0.48 0,-0.64 -0.08,-0.16 -0.08,-0.24 -0.16,-0.4 0,-0.08 -0.08,-0.15999 -0.08,-0.15999 -0.08,-0.08 -0.16,-0.08 -0.24,-0.08 -0.16,0 -0.24,0.08 -0.32,0.08 -0.08,0.08 -0.23999,0.23999 -0.31999,0.31999 -0.08,0.16 -0.24,0.4 -0.4,0.64 -0.08,0.24 -0.24,0.55999 -0.4,0.87999 v 5.43996 h -1.35999 v -5.91995 c 0,-0.24 0,-0.56 0,-0.72 -0.08,-0.16 -0.08,-0.32 -0.16,-0.4 0,-0.15999 -0.08,-0.23999 -0.16,-0.23999 0,-0.08 -0.08,-0.08 -0.23999,-0.08 -0.08,0 -0.16,0 -0.24,0.08 -0.08,0.08 -0.16,0.15999 -0.32,0.31999 -0.08,0.16 -0.24,0.32 -0.32,0.56 -0.16,0.24 -0.31999,0.56 -0.47999,0.95999 v 5.43996 h -1.35999 v -8.39994 h 1.11999 l 0.08,1.59999 c 0.16,-0.32 0.24,-0.63999 0.39999,-0.79999 0.16,-0.24 0.24,-0.4 0.4,-0.56 0.16,-0.16 0.32,-0.24 0.48,-0.32 0.16,-0.08 0.32,-0.08 0.55999,-0.08 0.48,0 0.8,0.15999 1.04,0.47999 0.23999,0.24 0.31999,0.72 0.31999,1.35999 0.16,-0.32 0.24,-0.55999 0.4,-0.79999 0.16,-0.24 0.24,-0.4 0.4,-0.56 0.16,-0.16 0.32,-0.24 0.47999,-0.32 0.24,-0.08 0.4,-0.15999 0.64,-0.15999 1.03999,0 1.59999,0.79999 1.59999,2.39998 v 6.15995 z"
         id="path4619" />
      <path
         inkscape:connector-curvature="0"
         style="fill:#000000;fill-opacity:1;fill-rule:nonzero;stroke:none"
         d="m 395.88733,453.62625 h 35.59973 v 1.03999 h -35.59973 z"
         id="path4621" />
      <path
         inkscape:connector-curvature="0"
         style="fill:#333333;fill-opacity:1;fill-rule:nonzero;stroke:none"
         d="M 403.96727,359.94694 H 258.76834 l 8.63994,-43.67967 c 0.16,-0.56 0.24,-1.04 0.48,-1.59999 2.79997,-8.47994 15.67988,-12.87991 26.7998,-9.91993 l 28.07979,7.43995 c 4.31997,1.11999 9.11993,1.19999 13.5199,0.16 l 32.55976,-7.91995 c 7.99994,-1.91998 17.11987,-0.31999 22.31983,4.63997 2.07999,1.99998 3.59998,4.47997 4.07997,7.19995 z"
         id="path4623" />
      <path
         inkscape:connector-curvature="0"
         style="fill:#000000;fill-opacity:1;fill-rule:nonzero;stroke:none"
         d="M 422.52713,363.70691 H 236.36851 c -1.99999,0 -3.67997,-1.67998 -3.67997,-3.75997 0,-2.07998 1.67998,-3.67997 3.67997,-3.67997 h 186.15862 c 2.07998,0 3.75997,1.59999 3.75997,3.67997 0,2.07999 -1.67999,3.75997 -3.75997,3.75997 z"
         id="path4625" />
      <path
         inkscape:connector-curvature="0"
         style="fill:#ffffff;fill-opacity:1;fill-rule:nonzero;stroke:none"
         d="m 262.76831,339.78709 -1.51999,7.51995 h 140.15897 l -1.43999,-7.51995 z"
         id="path4627" />
    </g>
  </g>
</svg>
